<svg width="39" height="39" viewBox="0 0 39 39" fill="none" xmlns="http://www.w3.org/2000/svg">
<path d="M19.4265 38.8286C8.73932 38.9571 -0.0316492 29.9368 8.58477e-05 19.3675C0.0318209 8.84654 8.80128 -0.0120772 19.4733 1.23596e-05C30.0064 0.0121019 38.9103 8.81027 38.8589 19.5277C38.806 30.1196 29.9656 38.9767 19.4265 38.8286ZM36.0632 19.4279C36.0617 10.1447 28.6946 2.78665 19.4114 2.79723C10.1583 2.80932 2.81846 10.1416 2.79882 19.3932C2.77917 28.6704 10.1387 36.0541 19.4144 36.0616C28.6977 36.0692 36.0632 28.7097 36.0632 19.4279Z" fill="white"/>
<path d="M18.0392 14.1841C18.0392 12.549 18.0226 10.9123 18.0453 9.27724C18.0574 8.38563 18.6346 7.77511 19.4008 7.75698C20.1957 7.73884 20.779 8.36448 20.8213 9.29235C20.8319 9.51903 20.8259 9.74571 20.8259 9.97239C20.8259 12.614 20.844 15.257 20.8123 17.8986C20.8047 18.5439 21.0087 18.964 21.521 19.3599C23.2528 20.6988 24.9529 22.0771 26.65 23.4598C27.3044 23.9932 27.4086 24.7912 26.9613 25.4032C26.5034 26.0303 25.7554 26.1271 25.0194 25.6465C24.894 25.5649 24.7761 25.4682 24.6582 25.3745C22.9294 23.9917 21.2399 22.5531 19.4552 21.2474C18.3928 20.4691 17.9077 19.5896 18.012 18.2598C18.1178 16.9088 18.0347 15.5442 18.0347 14.1856C18.0377 14.1841 18.0377 14.1841 18.0392 14.1841Z" fill="white"/>
</svg>
