<svg width="28" height="39" viewBox="0 0 28 39" fill="none" xmlns="http://www.w3.org/2000/svg">
<path d="M2.80717 19.43L2.80696 19.4296C1.39675 16.9724 0.88836 14.394 1.2754 11.6252C1.94821 6.91954 5.69902 2.79744 10.5895 1.57845L10.5896 1.57843C11.1159 1.4472 11.6252 1.3684 12.1851 1.28178C12.4451 1.24155 12.716 1.19963 13.0046 1.15H13.0061H13.0101H13.0142H13.0182H13.0222H13.0263H13.0303H13.0343H13.0384H13.0424H13.0464H13.0505H13.0545H13.0585H13.0626H13.0666H13.0706H13.0747H13.0787H13.0827H13.0868H13.0908H13.0948H13.0989H13.1029H13.1069H13.111H13.115H13.119H13.123H13.1271H13.1311H13.1351H13.1392H13.1432H13.1472H13.1513H13.1553H13.1593H13.1634H13.1674H13.1714H13.1755H13.1795H13.1835H13.1876H13.1916H13.1956H13.1997H13.2037H13.2077H13.2118H13.2158H13.2198H13.2239H13.2279H13.2319H13.236H13.24H13.244H13.2481H13.2521H13.2561H13.2602H13.2642H13.2682H13.2722H13.2763H13.2803H13.2843H13.2884H13.2924H13.2964H13.3005H13.3045H13.3085H13.3126H13.3166H13.3206H13.3247H13.3287H13.3327H13.3368H13.3408H13.3448H13.3489H13.3529H13.3569H13.361H13.365H13.369H13.3731H13.3771H13.3811H13.3852H13.3892H13.3932H13.3973H13.4013H13.4053H13.4093H13.4134H13.4174H13.4214H13.4255H13.4295H13.4335H13.4376H13.4416H13.4456H13.4497H13.4537H13.4577H13.4618H13.4658H13.4698H13.4739H13.4779H13.4819H13.486H13.49H13.494H13.4981H13.5021H13.5061H13.5102H13.5142H13.5182H13.5223H13.5263H13.5303H13.5344H13.5384H13.5424H13.5464H13.5505H13.5545H13.5585H13.5626H13.5666H13.5706H13.5747H13.5787H13.5827H13.5868H13.5908H13.5948H13.5989H13.6029H13.6069H13.611H13.615H13.619H13.6231H13.6271H13.6311H13.6352H13.6392H13.6432H13.6473H13.6513H13.6553H13.6594H13.6634H13.6674H13.6715H13.6755H13.6795H13.6835H13.6876H13.6916H13.6956H13.6997H13.7037H13.7077H13.7118H13.7158H13.7198H13.7239H13.7279H13.7319H13.736H13.74H13.744H13.7481H13.7521H13.7561H13.7602H13.7642H13.7682H13.7723H13.7763H13.7803H13.7844H13.7884H13.7924H13.7965H13.8005H13.8045H13.8086H13.8126H13.8166H13.8206H13.8247H13.8287H13.8327H13.8368H13.8408H13.8448H13.8489H13.8529H13.8569H13.861H13.865H13.869H13.8731H13.8771H13.8811H13.8852H13.8892H13.8932H13.8973H13.9013H13.9053H13.9094H13.9134H13.9174H13.9215H13.9255H13.9295H13.9336H13.9376H13.9416H13.9457H13.9497H13.9537H13.9578H13.9618H13.9658H13.9698H13.9739H13.9779H13.9819H13.986H13.99H13.994H13.9981H14.0021H14.0061H14.0102H14.0142H14.0182H14.0223H14.0263H14.0303H14.0344H14.0384H14.0424H14.0465H14.0505H14.0545H14.0586H14.0626H14.0666H14.0707H14.0747H14.0787H14.0828H14.0868H14.0908H14.0949H14.0989H14.1029H14.1069H14.111H14.115H14.119H14.1231H14.1271H14.1311H14.1352H14.1392H14.1432H14.1473H14.1513H14.1553H14.1594H14.1634H14.1674H14.1715H14.1755H14.1795H14.1836H14.1876H14.1916H14.1957H14.1997H14.2037H14.2078H14.2118H14.2158H14.2199H14.2239H14.2279H14.232H14.236H14.24H14.244H14.2481H14.2521H14.2561H14.2602H14.2642H14.2682H14.2723H14.2763H14.2803H14.2844H14.2884H14.2924H14.2965H14.3005H14.3045H14.3086H14.3126H14.3166H14.3207H14.3247H14.3287H14.3328H14.3368H14.3408H14.3449H14.3489H14.3529H14.357H14.361H14.365H14.3691H14.3731H14.3771H14.3811H14.3852H14.3892H14.3932H14.3973H14.4013H14.4053H14.4094H14.4134H14.4174H14.4215H14.4255H14.4295H14.4336H14.4376H14.4416H14.4457H14.4497H14.4537H14.4578H14.4618H14.4658H14.4699H14.4739H14.4779H14.482H14.486H14.49H14.4941H14.4981H14.5021H14.5062H14.5102H14.5142H14.5182H14.5223H14.5263H14.5303H14.5344H14.5384H14.5424H14.5465H14.5505H14.5545H14.5586H14.5626H14.5666H14.5707H14.5747H14.5787H14.5828H14.5868H14.5908H14.5949H14.5989H14.6029H14.607H14.611H14.615H14.6191H14.6231H14.6271H14.6312H14.6352H14.6392H14.6433H14.6473H14.6513H14.6553H14.6594H14.6634H14.6674H14.6715H14.6755H14.6795H14.6836H14.6876H14.6916H14.6957H14.6997H14.7037H14.7078H14.7118H14.7158H14.7199H14.7239H14.7279H14.732H14.736H14.74H14.7441H14.7481H14.7521H14.7562H14.7602H14.7642H14.7683H14.7723H14.7763H14.7804H14.7844H14.7884H14.7924H14.7965H14.8005H14.8045H14.8086H14.8126H14.8166H14.8207H14.8247H14.8287H14.8328H14.8368H14.8408H14.8449H14.8489H14.8529H14.857H14.861H14.865H14.8691H14.8731H14.8771H14.8812H14.8852H14.8892H14.8901C15.0535 1.17254 15.2085 1.19265 15.3578 1.21202C15.7495 1.26285 16.102 1.30859 16.4626 1.37969L16.4626 1.37973L16.4711 1.38134C22.2914 2.48329 26.6114 7.46951 26.7369 13.0269C26.785 15.3702 26.1721 17.549 24.9734 19.6399C21.7542 25.2122 18.5455 30.8046 15.3581 36.397C15.0079 37.0091 14.6736 37.3258 14.1905 37.4663H14.1904H14.1888H14.1873H14.1857H14.1842H14.1826H14.1811H14.1795H14.178H14.1764H14.1749H14.1733H14.1718H14.1702H14.1687H14.1671H14.1656H14.164H14.1625H14.1609H14.1594H14.1578H14.1563H14.1547H14.1532H14.1516H14.1501H14.1485H14.147H14.1454H14.1439H14.1423H14.1408H14.1392H14.1377H14.1361H14.1346H14.133H14.1315H14.1299H14.1283H14.1268H14.1252H14.1237H14.1221H14.1206H14.119H14.1175H14.1159H14.1144H14.1128H14.1113H14.1097H14.1082H14.1066H14.1051H14.1035H14.102H14.1004H14.0989H14.0973H14.0958H14.0942H14.0927H14.0911H14.0896H14.088H14.0865H14.0849H14.0834H14.0818H14.0803H14.0787H14.0772H14.0756H14.0741H14.0725H14.071H14.0694H14.0679H14.0663H14.0648H14.0632H14.0617H14.0601H14.0586H14.057H14.0555H14.0539H14.0524H14.0508H14.0493H14.0477H14.0462H14.0446H14.043H14.0415H14.0399H14.0384H14.0368H14.0353H14.0337H14.0322H14.0306H14.0291H14.0275H14.026H14.0244H14.0229H14.0213H14.0198H14.0182H14.0167H14.0151H14.0136H14.012H14.0105H14.0089H14.0074H14.0058H14.0043H14.0027H14.0012H13.9996H13.9981H13.9965H13.995H13.9934H13.9919H13.9903H13.9888H13.9872H13.9857H13.9841H13.9826H13.981H13.9795H13.9779H13.9764H13.9748H13.9733H13.9717H13.9702H13.9686H13.9671H13.9655H13.964H13.9624H13.9609H13.9593H13.9578H13.9562H13.9546H13.9531H13.9515H13.95H13.9484H13.9469H13.9453H13.9438H13.9422H13.9407H13.9391H13.9376H13.936H13.9345H13.9329H13.9314H13.9298H13.9283H13.9267H13.9252H13.9236H13.9221H13.9205H13.919H13.9174H13.9159H13.9143H13.9128H13.9112H13.9097H13.9081H13.9066H13.905H13.9035H13.9019H13.9004H13.8988H13.8973H13.8957H13.8942H13.8926H13.8911H13.8895H13.888H13.8864H13.8849H13.8833H13.8818H13.8802H13.8787H13.8771H13.8756H13.874H13.8724H13.8709H13.8693H13.8678H13.8662H13.8647H13.8631H13.8616H13.86H13.8585H13.8569H13.8554H13.8538H13.8523H13.8507H13.8492H13.8476H13.8461H13.8445H13.843H13.8414H13.8399H13.8383H13.8368H13.8352H13.8337H13.8321H13.8306H13.829H13.8275H13.8259H13.8244H13.8228H13.8213H13.8197H13.8182H13.8166H13.8151H13.8135H13.812H13.8104H13.8089H13.8073H13.8058H13.8042H13.8027H13.8011H13.7996H13.798H13.7965H13.7949H13.7934H13.7918H13.7903H13.7887H13.7872H13.7856H13.784H13.7825H13.7809H13.7794H13.7778H13.7763H13.7747H13.7732H13.7716H13.7701H13.7685H13.767H13.7654H13.7639H13.7623H13.7608H13.7592H13.7577H13.7561H13.7546H13.753H13.7515H13.7499H13.7484H13.7468H13.7453H13.7437H13.7422H13.7406H13.7391H13.7375H13.736H13.7344H13.7329H13.7313H13.7298H13.7282H13.7267H13.7251H13.7236H13.722H13.7205H13.7189H13.7174H13.7158H13.7143H13.7127H13.7112H13.7096H13.7081H13.7065H13.705H13.7034H13.7018H13.7003H13.6987H13.6972H13.6967C13.2278 37.3221 12.9184 37.0676 12.6747 36.6463C10.3958 32.6464 8.10089 28.6504 5.80603 24.6544C4.80596 22.913 3.8059 21.1717 2.80717 19.43ZM7.0862 12.0333L7.0862 12.0334C7.0732 15.725 10.1897 18.648 13.9323 18.648C17.6402 18.648 20.7865 15.77 20.7996 12.1019V12.1018C20.8126 8.40883 17.6841 5.48718 13.9535 5.48718C10.2456 5.48718 7.09925 8.36519 7.0862 12.0333Z" stroke="white" stroke-width="2.3"/>
</svg>
