<svg width="33" height="36" viewBox="0 0 33 36" fill="none" xmlns="http://www.w3.org/2000/svg">
<path d="M11.9145 10.3879L11.9145 10.3879C12.2789 10.2455 12.5706 9.99646 12.7957 9.59203L11.9145 10.3879ZM11.9145 10.3879L11.9106 10.3894M11.9145 10.3879L11.9106 10.3894M11.9106 10.3894C10.7478 10.8488 9.78678 11.6634 9.25794 12.9796L9.2579 12.9796M11.9106 10.3894L9.2579 12.9796M9.2579 12.9796L9.25429 12.9888M9.2579 12.9796L9.25429 12.9888M9.25429 12.9888C8.90745 13.8739 8.85484 14.7833 9.0788 15.7007L9.07907 15.7018M9.25429 12.9888L9.07907 15.7018M9.07907 15.7018C9.57554 17.7265 10.5894 19.395 11.7658 20.8617C13.1642 22.6148 14.8024 24.1462 16.814 25.2224C17.5937 25.6423 18.6799 26.1701 19.9698 25.9786L19.9717 25.9783M9.07907 15.7018L19.9717 25.9783M19.9717 25.9783C21.5124 25.7469 22.7795 24.8748 23.4004 23.2381L23.4025 23.2325M19.9717 25.9783L23.4025 23.2325M23.4025 23.2325C23.6782 22.4941 23.9394 22.0801 24.3249 21.8314C25.0573 21.3636 25.9168 21.4449 26.4994 22.0224C27.2193 22.7363 27.9055 23.494 28.6146 24.2771C28.7683 24.4468 28.923 24.6177 29.0794 24.7896L29.083 24.7935M23.4025 23.2325L29.083 24.7935M29.083 24.7935C29.2964 25.0258 29.5057 25.2497 29.7109 25.4692C30.3012 26.1007 30.8575 26.6958 31.3771 27.3485L31.377 27.3485M29.083 24.7935L31.377 27.3485M31.377 27.3485L31.3816 27.3541M31.377 27.3485L31.3816 27.3541M31.3816 27.3541C31.9682 28.0818 32.0173 29.339 31.4535 30.2058C31.3092 30.4223 31.161 30.6166 31.0105 30.7805L31.0069 30.7844M31.3816 27.3541L31.0069 30.7844M31.0069 30.7844C30.7157 31.1043 30.4131 31.4306 30.1059 31.7616C29.5277 32.3849 28.9335 33.0254 28.3698 33.6738C27.6898 34.4536 26.8777 34.7951 25.869 34.8439C24.7085 34.8953 23.5595 34.6169 22.3359 34.1674C19.9448 33.2828 17.7591 31.908 15.6446 30.2647C12.1384 27.5342 9.06158 24.3052 6.41398 20.5988L6.41312 20.5976M31.0069 30.7844L6.41312 20.5976M6.41312 20.5976C4.45711 17.8667 2.81766 14.9917 1.80943 11.7737L1.80938 11.7736M6.41312 20.5976L1.80938 11.7736M1.80938 11.7736C1.37075 10.3743 1.09528 9.00798 1.15917 7.62268C1.21392 6.46197 1.55118 5.55185 2.25241 4.83402L2.25242 4.83402M1.80938 11.7736L2.25242 4.83402M2.25242 4.83402L2.25615 4.83017M2.25242 4.83402L2.25615 4.83017M2.25615 4.83017C3.06009 3.99949 3.83942 3.15096 4.60218 2.27584C5.19318 1.60112 5.66173 1.24866 6.19149 1.15H6.19238H6.19375H6.19512H6.19649H6.19786H6.19924H6.20061H6.20198H6.20335H6.20472H6.20609H6.20746H6.20884H6.21021H6.21158H6.21295H6.21432H6.21569H6.21707H6.21844H6.21981H6.22118H6.22255H6.22392H6.2253H6.22667H6.22804H6.22941H6.23078H6.23216H6.23353H6.2349H6.23627H6.23764H6.23902H6.24039H6.24176H6.24313H6.24451H6.24588H6.24725H6.24862H6.25H6.25137H6.25274H6.25411H6.25549H6.25686H6.25823H6.2596H6.26098H6.26235H6.26372H6.2651H6.26647H6.26784H6.26921H6.27059H6.27196H6.27333H6.27471H6.27608H6.27745H6.27883H6.2802H6.28157H6.28295H6.28432H6.2857H6.28707H6.28844H6.28982H6.29119H6.29256H6.29394H6.29531H6.29669H6.29806H6.29943H6.30081H6.30218H6.30356H6.30493H6.30631H6.30768H6.30906H6.31043H6.3118H6.31318H6.31455H6.31593H6.3173H6.31868H6.32005H6.32143H6.3228H6.32418H6.32555H6.32693H6.32831H6.32968H6.33106H6.33243H6.33381H6.33518H6.33656H6.33793H6.33931H6.34069H6.34206H6.34344H6.34481H6.34619H6.34757H6.34894H6.35032H6.3517H6.35307H6.35445H6.35582H6.3572H6.35858H6.35996H6.36133H6.36271H6.36409H6.36546H6.36684H6.36822H6.3696H6.37097H6.37235H6.37373H6.3751H6.37648H6.37786H6.37924H6.38062H6.38199H6.38337H6.38475H6.38613H6.38751H6.38889H6.39026H6.39164H6.39302H6.3944H6.39578H6.39716H6.39854H6.39991H6.40129H6.40267H6.40405H6.40543H6.40681H6.40819H6.40957H6.41095H6.41233H6.41371H6.41509H6.41647H6.41785H6.41923H6.42061H6.42199H6.42337H6.42475H6.42613H6.42751H6.42889H6.43027H6.43165H6.43303H6.43441H6.4358H6.43718H6.43856H6.43994H6.44132H6.4427H6.44408H6.44547H6.44685H6.44823H6.44961H6.45099H6.45238H6.45376H6.45514H6.45652H6.45791H6.45929H6.46067H6.46205H6.46344H6.46482H6.4662H6.46759H6.46897H6.47035H6.47174H6.47312H6.4745H6.47589H6.47727H6.47866H6.48004H6.48142H6.48281H6.48419H6.48558H6.48696H6.48835H6.48973H6.49112H6.4925H6.49389H6.49527H6.49666H6.49804H6.49943H6.50081H6.5022H6.50359H6.50497H6.50636H6.50774H6.50913H6.51052H6.5119H6.51329H6.51468H6.51606H6.51745H6.51884H6.52023H6.52161H6.523H6.52439H6.52577H6.52716H6.52855H6.52994H6.53133H6.53271H6.5341H6.53549H6.53688H6.53827H6.53966H6.54105H6.54244H6.54382H6.54521H6.5466H6.54799H6.54938H6.55077H6.55216H6.55355H6.55494H6.55633H6.55772H6.55911H6.5605H6.56189H6.56328H6.56467H6.56607H6.56746H6.56885H6.57024H6.57163H6.57302H6.57441H6.57581H6.5772H6.57859H6.57998H6.58138H6.58277H6.58416H6.58555H6.58695H6.58834H6.58973H6.59113H6.59252H6.59391H6.59531H6.5967H6.59809H6.59949H6.60088H6.60228H6.60367H6.60507H6.60646H6.60785H6.60925H6.61064H6.61204H6.61344H6.61483H6.61623H6.61762H6.61902H6.62041H6.62181H6.62321H6.6246H6.626H6.6274H6.62879H6.63019H6.63159H6.63298H6.63438H6.63578H6.63718H6.63858H6.63997H6.64137H6.64277H6.64417H6.64557H6.64697H6.64836H6.64976H6.65116H6.65256H6.65396H6.65536H6.65676H6.65816H6.65956H6.66096H6.66236H6.66376H6.66516H6.66656H6.66757M2.25615 4.83017L6.66757 1.15M6.66757 1.15C7.19483 1.28612 7.54972 1.43681 7.82861 1.69064C7.85745 1.71815 7.88407 1.74224 7.90562 1.76146C7.92037 1.77461 7.94006 1.79191 7.95365 1.80386C7.95896 1.80852 7.96333 1.81237 7.96613 1.81483C7.98115 1.8281 7.98909 1.8354 7.99231 1.83838C8.48793 2.378 8.98293 2.91501 9.47712 3.45114C10.4661 4.52403 11.4518 5.59339 12.4327 6.67305C13.2035 7.52514 13.3188 8.65028 12.7959 9.59165L6.66757 1.15Z" stroke="white" stroke-width="2.3"/>
</svg>
